<?xml version="1.0" encoding="utf-8"?>
<!-- Generator: Adobe Illustrator 21.0.2, SVG Export Plug-In . SVG Version: 6.00 Build 0)  -->
<svg version="1.1" id="Layer_1" xmlns="http://www.w3.org/2000/svg" xmlns:xlink="http://www.w3.org/1999/xlink" x="0px" y="0px"
	 viewBox="0 0 100 70.4" style="enable-background:new 0 0 100 70.4;" xml:space="preserve">
<style type="text/css">
	.st0{fill:#00A1E0;}
	.st1{fill:#FFFFFF;}
</style>
<path class="st0" d="M41.8,8c3.2-3.3,7.6-5.4,12.5-5.4c6.5,0,12.2,3.6,15.3,9c2.6-1.2,5.6-1.8,8.6-1.8c11.8,0,21.3,9.6,21.3,21.5
	c0,11.9-9.5,21.5-21.3,21.5c-1.4,0-2.8-0.1-4.2-0.4c-2.7,4.8-7.8,8-13.6,8c-2.4,0-4.8-0.6-6.8-1.6c-2.7,6.4-9,10.8-16.4,10.8
	c-7.7,0-14.2-4.8-16.7-11.6c-1.1,0.2-2.2,0.4-3.4,0.4C8,58.4,0.6,51,0.6,41.8c0-6.2,3.3-11.6,8.3-14.4c-1-2.3-1.6-4.9-1.6-7.6
	c0-10.6,8.6-19.2,19.2-19.2C32.7,0.5,38.3,3.5,41.8,8"/>
<path class="st1" d="M14.9,36.4c-0.1,0.2,0,0.2,0,0.2c0.2,0.1,0.4,0.2,0.6,0.3c1,0.5,2,0.7,3,0.7c2,0,3.3-1.1,3.3-2.8v0
	c0-1.6-1.4-2.2-2.8-2.6l-0.2-0.1c-1-0.3-1.9-0.6-1.9-1.3v0c0-0.6,0.5-1,1.3-1c0.9,0,1.9,0.3,2.6,0.7c0,0,0.2,0.1,0.3-0.1
	c0-0.1,0.4-1,0.4-1.1c0-0.1,0-0.2-0.1-0.2c-0.8-0.5-1.8-0.8-2.9-0.8l-0.2,0c-1.9,0-3.2,1.1-3.2,2.7v0c0,1.7,1.4,2.2,2.8,2.6l0.2,0.1
	c1,0.3,1.8,0.6,1.8,1.2v0c0,0.6-0.5,1.1-1.4,1.1c-0.3,0-1.4,0-2.6-0.8c-0.1-0.1-0.2-0.1-0.3-0.2c-0.1,0-0.2-0.1-0.3,0.1L14.9,36.4
	L14.9,36.4z M44.6,36.4c-0.1,0.2,0,0.2,0,0.2c0.2,0.1,0.4,0.2,0.6,0.3c1,0.5,2,0.7,3,0.7c2,0,3.3-1.1,3.3-2.8v0
	c0-1.6-1.4-2.2-2.8-2.6l-0.2-0.1c-1-0.3-1.9-0.6-1.9-1.3v0c0-0.6,0.5-1,1.3-1c0.9,0,1.9,0.3,2.6,0.7c0,0,0.2,0.1,0.3-0.1
	c0-0.1,0.4-1,0.4-1.1c0-0.1,0-0.2-0.1-0.2c-0.8-0.5-1.8-0.8-2.9-0.8l-0.2,0c-1.9,0-3.2,1.1-3.2,2.7v0c0,1.7,1.4,2.2,2.8,2.6l0.2,0.1
	c1,0.3,1.8,0.6,1.8,1.2v0c0,0.6-0.5,1.1-1.4,1.1c-0.3,0-1.4,0-2.6-0.8c-0.1-0.1-0.2-0.1-0.3-0.2c0,0-0.2-0.1-0.3,0.1L44.6,36.4
	L44.6,36.4z M64.9,33c0,1-0.2,1.8-0.5,2.3c-0.4,0.5-0.9,0.8-1.6,0.8c-0.8,0-1.3-0.3-1.6-0.8c-0.4-0.5-0.5-1.3-0.5-2.3
	c0-1,0.2-1.8,0.5-2.3c0.4-0.5,0.9-0.8,1.6-0.8c0.8,0,1.3,0.3,1.6,0.8C64.7,31.2,64.9,32,64.9,33 M66.6,31.2
	c-0.2-0.6-0.4-1.1-0.8-1.5c-0.3-0.4-0.8-0.7-1.3-1c-0.5-0.2-1.1-0.4-1.8-0.4c-0.7,0-1.3,0.1-1.8,0.4c-0.5,0.2-1,0.6-1.3,1
	c-0.3,0.4-0.6,0.9-0.8,1.5c-0.2,0.6-0.2,1.2-0.2,1.8s0.1,1.3,0.2,1.8c0.2,0.6,0.4,1.1,0.8,1.5c0.3,0.4,0.8,0.7,1.3,1
	c0.5,0.2,1.1,0.4,1.8,0.4c0.7,0,1.3-0.1,1.8-0.4c0.5-0.2,1-0.6,1.3-1c0.3-0.4,0.6-0.9,0.8-1.5c0.2-0.6,0.2-1.2,0.2-1.8
	C66.8,32.3,66.8,31.7,66.6,31.2 M80.5,35.8c-0.1-0.2-0.2-0.1-0.2-0.1c-0.2,0.1-0.5,0.2-0.8,0.2c-0.3,0-0.6,0.1-0.9,0.1
	c-0.8,0-1.5-0.2-1.9-0.7c-0.5-0.5-0.7-1.3-0.7-2.3c0-1,0.2-1.7,0.6-2.2c0.4-0.5,1-0.8,1.9-0.8c0.7,0,1.2,0.1,1.8,0.3
	c0,0,0.1,0.1,0.2-0.1c0.1-0.4,0.3-0.7,0.4-1.2c0-0.1-0.1-0.2-0.1-0.2c-0.2-0.1-0.7-0.2-1.1-0.3c-0.4-0.1-0.8-0.1-1.3-0.1
	c-0.7,0-1.3,0.1-1.9,0.4c-0.5,0.2-1,0.6-1.4,1c-0.4,0.4-0.6,0.9-0.8,1.5C74.1,31.7,74,32.3,74,33c0,1.4,0.4,2.5,1.1,3.4
	c0.7,0.8,1.9,1.3,3.3,1.3c0.9,0,1.8-0.2,2.4-0.4c0,0,0.1-0.1,0.1-0.2L80.5,35.8L80.5,35.8z M83.5,32.1c0.1-0.5,0.2-1,0.5-1.4
	c0.4-0.5,0.9-0.8,1.6-0.8c0.8,0,1.2,0.3,1.6,0.8c0.2,0.4,0.3,0.8,0.4,1.4H83.5L83.5,32.1z M89.2,30.9c-0.1-0.5-0.5-1.1-0.7-1.3
	c-0.4-0.4-0.7-0.7-1.1-0.8c-0.5-0.2-1-0.3-1.6-0.3c-0.7,0-1.4,0.1-1.9,0.4c-0.5,0.2-1,0.6-1.3,1c-0.3,0.4-0.6,0.9-0.8,1.5
	c-0.2,0.6-0.3,1.2-0.3,1.8c0,0.7,0.1,1.3,0.3,1.8c0.2,0.6,0.5,1,0.8,1.5c0.4,0.4,0.9,0.7,1.4,1c0.6,0.2,1.3,0.3,2.1,0.3
	c1.7,0,2.5-0.4,2.9-0.6c0.1,0,0.1-0.1,0-0.3l-0.4-1c-0.1-0.2-0.2-0.1-0.2-0.1c-0.4,0.2-1,0.4-2.4,0.4c-0.9,0-1.5-0.3-2-0.7
	c-0.4-0.4-0.6-1-0.7-1.9l5.7,0c0,0,0.2,0,0.2-0.1C89.3,33.3,89.5,32.1,89.2,30.9 M37.6,32.1c0.1-0.5,0.2-1,0.5-1.4
	c0.4-0.5,0.9-0.8,1.6-0.8c0.8,0,1.2,0.3,1.6,0.8c0.2,0.4,0.3,0.8,0.4,1.4H37.6z M43.3,30.9c-0.1-0.5-0.5-1.1-0.7-1.3
	c-0.4-0.4-0.7-0.7-1.1-0.8c-0.5-0.2-1-0.3-1.6-0.3c-0.7,0-1.4,0.1-1.9,0.4c-0.5,0.2-1,0.6-1.3,1c-0.3,0.4-0.6,0.9-0.8,1.5
	c-0.2,0.6-0.3,1.2-0.3,1.8c0,0.7,0.1,1.3,0.3,1.8c0.2,0.6,0.5,1,0.8,1.5c0.4,0.4,0.9,0.7,1.4,1c0.6,0.2,1.3,0.3,2.1,0.3
	c1.7,0,2.5-0.4,2.9-0.6c0.1,0,0.1-0.1,0-0.3l-0.4-1c-0.1-0.2-0.2-0.1-0.2-0.1c-0.4,0.2-1,0.4-2.4,0.4c-0.9,0-1.5-0.3-2-0.7
	c-0.4-0.4-0.6-1-0.7-1.9l5.7,0c0,0,0.2,0,0.2-0.1C43.4,33.3,43.6,32.1,43.3,30.9 M25.2,35.8c-0.2-0.2-0.3-0.2-0.3-0.3
	c-0.1-0.2-0.2-0.4-0.2-0.7c0-0.5,0.2-0.9,0.5-1.1c0,0,0.5-0.4,1.7-0.4c0.8,0,1.6,0.1,1.6,0.1v2.6h0c0,0-0.7,0.2-1.5,0.2
	C25.7,36.2,25.2,35.8,25.2,35.8 M27.5,31.8c-0.2,0-0.5,0-0.9,0c-0.5,0-1,0.1-1.4,0.2c-0.4,0.1-0.9,0.3-1.2,0.6
	c-0.3,0.2-0.6,0.6-0.8,0.9c-0.2,0.4-0.3,0.8-0.3,1.3c0,0.5,0.1,0.9,0.3,1.3c0.2,0.4,0.4,0.7,0.7,0.9c0.3,0.2,0.7,0.4,1.2,0.5
	c0.4,0.1,1,0.2,1.5,0.2c0.6,0,1.2,0,1.7-0.1c0.6-0.1,1.3-0.2,1.4-0.3c0.1,0,0.3-0.1,0.4-0.1c0.1,0,0.1-0.2,0.1-0.2l0-5.2
	c0-1.1-0.3-2-0.9-2.5c-0.6-0.5-1.5-0.8-2.6-0.8c-0.4,0-1.1,0.1-1.5,0.1c0,0-1.3,0.2-1.8,0.6c0,0-0.1,0.1-0.1,0.2l0.4,1.1
	c0.1,0.1,0.2,0.1,0.2,0.1s0,0,0.1,0c1.1-0.6,2.5-0.6,2.5-0.6c0.6,0,1.1,0.1,1.4,0.4c0.3,0.2,0.5,0.6,0.5,1.4v0.2
	C27.9,31.8,27.5,31.8,27.5,31.8 M73.7,28.8c0-0.1,0-0.2-0.1-0.2c-0.1,0-0.6-0.1-1-0.2c-0.7,0-1.1,0.1-1.5,0.2
	c-0.4,0.2-0.7,0.4-1,0.7v-0.7c0-0.1-0.1-0.2-0.2-0.2h-1.5c-0.1,0-0.2,0.1-0.2,0.2v8.5c0,0.1,0.1,0.2,0.2,0.2h1.5
	c0.1,0,0.2-0.1,0.2-0.2V33c0-0.6,0.1-1.1,0.2-1.5c0.1-0.4,0.3-0.6,0.5-0.8c0.2-0.2,0.4-0.3,0.7-0.4c0.3-0.1,0.6-0.1,0.8-0.1
	c0.3,0,0.6,0.1,0.6,0.1c0.1,0,0.2-0.1,0.2-0.2C73.3,29.8,73.6,29,73.7,28.8"/>
<path class="st1" d="M59.5,24.9c-0.2-0.1-0.3-0.1-0.6-0.1c-0.2,0-0.5-0.1-0.8-0.1c-1,0-1.9,0.3-2.4,0.9c-0.6,0.6-1,1.4-1.2,2.6
	l-0.1,0.4h-1.3c0,0-0.2,0-0.2,0.2l-0.2,1.2c0,0.1,0,0.2,0.2,0.2h1.3L53,37.2c-0.1,0.6-0.2,1.1-0.3,1.4c-0.1,0.4-0.2,0.6-0.4,0.8
	c-0.1,0.2-0.3,0.3-0.5,0.4c-0.2,0.1-0.4,0.1-0.7,0.1c-0.1,0-0.3,0-0.5-0.1c-0.1,0-0.2-0.1-0.3-0.1c0,0-0.1-0.1-0.2,0.1
	c0,0.1-0.4,1.1-0.4,1.2c0,0.1,0,0.2,0.1,0.2c0.2,0.1,0.3,0.1,0.5,0.2c0.3,0.1,0.6,0.1,0.8,0.1c0.5,0,1-0.1,1.4-0.2
	c0.4-0.1,0.7-0.4,1.1-0.7c0.3-0.4,0.5-0.8,0.7-1.3c0.2-0.5,0.4-1.2,0.5-1.9l1.3-7.3H58c0,0,0.2,0,0.2-0.2l0.2-1.2
	c0-0.1,0-0.2-0.2-0.2h-1.8c0,0,0.1-0.7,0.3-1.3c0.1-0.3,0.3-0.5,0.4-0.6c0.1-0.1,0.3-0.2,0.5-0.3c0.2-0.1,0.4-0.1,0.6-0.1
	c0.2,0,0.3,0,0.5,0c0.2,0,0.2,0.1,0.3,0.1c0.2,0.1,0.2,0,0.2-0.1l0.4-1.2C59.7,24.9,59.6,24.9,59.5,24.9 M33.9,37.3
	c0,0.1-0.1,0.2-0.2,0.2h-1.5c-0.1,0-0.2-0.1-0.2-0.2V25c0-0.1,0.1-0.2,0.2-0.2h1.5c0.1,0,0.2,0.1,0.2,0.2V37.3z"/>
</svg>
