<?xml version="1.0" encoding="utf-8"?>
<!-- Generator: Adobe Illustrator 21.0.2, SVG Export Plug-In . SVG Version: 6.00 Build 0)  -->
<svg version="1.1" id="Layer_1" xmlns="http://www.w3.org/2000/svg" xmlns:xlink="http://www.w3.org/1999/xlink" x="0px" y="0px"
	 viewBox="0 0 100 100" style="enable-background:new 0 0 100 100;" xml:space="preserve">
<style type="text/css">
	.st0{fill:url(#Board_1_);}
	.st1{fill:#FFFFFF;}
</style>
<title>trello-logo-blue-flat</title>
<desc>Created with Sketch.</desc>
<g id="Page-1">
	<g id="Logos" transform="translate(-509.000000, -485.000000)">
		<g id="Group" transform="translate(-9.000000, 1.000000)">
			<g id="Trello-Logo" transform="translate(468.000000, 0.000000)">
				<g id="Trello-Logo---Blue---Flat" transform="translate(0.000000, 420.000000)">
					<g id="Logo" transform="translate(50.000000, 64.000000)">
						<g transform="translate(50.000000, 1.000000)">
							<g id="Mark" transform="translate(0.000000, 35.000000)">
								
									<linearGradient id="Board_1_" gradientUnits="userSpaceOnUse" x1="341.0355" y1="150.6066" x2="341.0355" y2="150.1138" gradientTransform="matrix(200 0 0 -200 -68207 30086)">
									<stop  offset="0" style="stop-color:#0079BF"/>
									<stop  offset="1" style="stop-color:#0079BF"/>
								</linearGradient>
								<path id="Board" class="st0" d="M-36.9-35.3h73.9c6.8,0,12.3,5.5,12.3,12.3v73.9c0,6.8-5.5,12.3-12.3,12.3h-73.9
									c-6.8,0-12.3-5.5-12.3-12.3V-23C-49.2-29.8-43.7-35.3-36.9-35.3z"/>
								<path id="Right-List" class="st1" d="M12.4-22.5h18.2c3.3,0,5.9,2.6,5.9,5.9v31.3c0,3.3-2.6,5.9-5.9,5.9H12.4
									c-3.3,0-5.9-2.6-5.9-5.9v-31.3C6.5-19.9,9.2-22.5,12.4-22.5z"/>
								<path id="Left-List" class="st1" d="M-30.5-22.5h18.2c3.3,0,5.9,2.6,5.9,5.9v55.9c0,3.3-2.6,5.9-5.9,5.9h-18.2
									c-3.3,0-5.9-2.6-5.9-5.9v-55.9C-36.4-19.9-33.7-22.5-30.5-22.5z"/>
							</g>
						</g>
					</g>
				</g>
			</g>
		</g>
	</g>
</g>
</svg>
