<?xml version="1.0" encoding="utf-8"?>
<!-- Generator: Adobe Illustrator 21.0.2, SVG Export Plug-In . SVG Version: 6.00 Build 0)  -->
<svg version="1.1" id="Layer_1" xmlns="http://www.w3.org/2000/svg" xmlns:xlink="http://www.w3.org/1999/xlink" x="0px" y="0px"
	 viewBox="0 0 100 100" style="enable-background:new 0 0 100 100;" xml:space="preserve">
<style type="text/css">
	.st0{fill:#221E1B;}
</style>
<g>
	<path class="st0" d="M49.8,1.5c-27,0-48.8,21.9-48.8,49.1c0,21.6,14,39.9,33.6,46.6c2.5,0.5,3.3-1,3.3-2.3s0-5.1,0-9.2
		c-13.7,3.1-16.5-5.9-16.5-5.9c-2.3-5.6-5.3-7.1-5.3-7.1c-4.3-3.1,0.3-3.1,0.3-3.1c4.8,0.3,7.6,5.1,7.6,5.1
		c4.3,7.4,11.4,5.3,14.2,4.1c0.5-3.1,1.8-5.3,3.1-6.6C30.2,71,18.7,66.9,18.7,48.1c0-5.3,2-9.7,5.1-13.2c-0.5-1.3-2.3-6.1,0.5-13
		c0,0,4.1-1.3,13.5,5.1c3.8-1,8.1-1.5,12.2-1.5c4.1,0,8.4,0.5,12.2,1.5c9.4-6.4,13.5-5.1,13.5-5.1c2.5,6.9,1,11.7,0.5,13
		c3.1,3.3,5.1,7.9,5.1,13.2c0,18.8-11.4,22.9-22.4,24.2c1.8,1.5,3.3,4.6,3.3,9.2c0,6.6,0,11.7,0,13.5c0,1.3,0.8,2.8,3.3,2.3
		c19.3-6.4,33.6-24.9,33.6-46.6C98.9,23.4,76.7,1.5,49.8,1.5z"/>
	<path class="st0" d="M19.5,71.7c0,0.3-0.5,0.3-0.8,0.3c-0.3-0.3-0.5-0.5-0.5-0.8c0-0.3,0.5-0.3,0.8-0.3
		C19.2,71.2,19.5,71.5,19.5,71.7L19.5,71.7z"/>
	<path class="st0" d="M21.3,74c-0.3,0.3-0.8,0-1-0.3C20,73.5,20,73,20,72.7c0.3-0.3,0.8,0,1,0.3C21.5,73.2,21.5,73.8,21.3,74
		L21.3,74z"/>
	<path class="st0" d="M23.3,76.8c-0.3,0.3-0.8,0-1-0.5c-0.3-0.5-0.3-1,0-1.3c0.3-0.3,0.8,0,1,0.5C23.6,76,23.6,76.6,23.3,76.8
		L23.3,76.8z"/>
	<path class="st0" d="M25.8,79.4c-0.3,0.3-0.8,0.3-1.3-0.3s-0.5-1-0.3-1.3c0.3-0.3,0.8-0.3,1.3,0.3C26.1,78.6,26.1,79.1,25.8,79.4
		L25.8,79.4z"/>
	<path class="st0" d="M29.7,81.1c0,0.5-0.8,0.5-1.3,0.5c-0.5-0.3-1-0.5-0.8-1c0-0.5,0.8-0.5,1.3-0.5C29.4,80.1,29.7,80.6,29.7,81.1
		L29.7,81.1z"/>
	<path class="st0" d="M33.5,81.4c0,0.5-0.5,0.8-1,0.8c-0.5,0-1-0.3-1-0.8c0-0.5,0.5-0.8,1-0.8C33.2,80.6,33.5,80.9,33.5,81.4
		L33.5,81.4z"/>
	<path class="st0" d="M37.3,80.6c0,0.5-0.3,0.8-1,1c-0.5,0-1-0.3-1.3-0.5c0-0.5,0.3-0.8,1-1C36.8,80.1,37.3,80.4,37.3,80.6
		L37.3,80.6z"/>
</g>
</svg>
