<svg id="Layer_1" data-name="Layer 1" xmlns="http://www.w3.org/2000/svg" viewBox="0 0 73.93 87.15"><defs><style>.cls-1{fill:#7a69a8;}.cls-2{fill:#f77178;}.cls-3{fill:#00a19a;}.cls-4{fill:#5891bf;}</style></defs><title>LDAP</title><path class="cls-1" d="M29.47,41.5H51.06V48.4H20.87V6.67h8.6Z" transform="translate(-13.12 -6.67)"/><path class="cls-2" d="M55.08,48.4V6.67H67.92a19.51,19.51,0,0,1,9.85,2.48,17.3,17.3,0,0,1,6.78,7.05A21.78,21.78,0,0,1,87,26.59v1.92a21.82,21.82,0,0,1-2.39,10.35,17.15,17.15,0,0,1-6.75,7A19.65,19.65,0,0,1,68,48.4Zm8.6-34.77V41.5h4.16q5,0,7.71-3.3t2.72-9.43V26.56q0-6.36-2.64-9.65t-7.71-3.28Z" transform="translate(-13.12 -6.67)"/><path class="cls-3" d="M40.21,85.22H25.13l-2.87,8.6H13.12L28.65,52.08h8L52.25,93.82H43.1Zm-12.76-7H37.88L32.64,62.63Z" transform="translate(-13.12 -6.67)"/><path class="cls-4" d="M63.68,79.11V93.82h-8.6V52.08H71.36a18.84,18.84,0,0,1,8.27,1.72,12.67,12.67,0,0,1,5.49,4.89A13.64,13.64,0,0,1,87,65.9a12,12,0,0,1-4.2,9.68q-4.2,3.54-11.62,3.54Zm0-7h7.68a7.55,7.55,0,0,0,5.2-1.61A5.84,5.84,0,0,0,78.36,66a6.89,6.89,0,0,0-1.81-5,6.75,6.75,0,0,0-5-1.95H63.68Z" transform="translate(-13.12 -6.67)"/></svg>