<svg id="Layer_1" data-name="Layer 1" xmlns="http://www.w3.org/2000/svg" viewBox="0 0 90.5 94.72"><defs><style>.cls-1{fill:#684c46;}.cls-2{fill:#f5dcba;}.cls-3{fill:#0788bf;}.cls-4{fill:#46b8e3;}.cls-5{fill:#ffd14f;}.cls-6{fill:#122030;}.cls-7{fill:#fff;}.cls-8{fill:#eabe8d;}.cls-9{fill:#9c7356;}</style></defs><title>mailchimp</title><path class="cls-1" d="M92.09,69.73c-.07.24-7,27-34.44,27C34,96.76,22.74,76.17,22.74,76.17a12.27,12.27,0,0,1-4.93-.74A13.57,13.57,0,0,1,9.93,58.26L6.11,55.34C-8.68,44.07,33.22-7.49,48,4.18L51.58,7C56.9,3.79,62.17,2,66.45,2c3,0,5.59.88,7.3,2.74C77.59,8.95,76.21,16.9,71,24.95a13.22,13.22,0,0,1,2.73,4,9.46,9.46,0,0,1,3.29,6c.6,3,.72,7.29,1.1,9.13,1.42.64.81.34,2.32,1.1A20.61,20.61,0,0,1,86,48.89c3.77.94,5.2,4.95,3,7.68l-.6.7A14.17,14.17,0,0,1,89.72,61a5,5,0,0,1,3.46,2.72C94.31,66.45,92.09,69.73,92.09,69.73ZM81.23,90v1.12h.43V90h.44v-.35h-1.3V90Zm1-.35v1.48h.39V90l.32,1.07h.33L83.59,90v1.07H84V89.62h-.61l-.26.85-.27-.85Z" transform="translate(-3 -2.05)"/><path class="cls-2" d="M28.33,59.65h0a23.46,23.46,0,0,0,.9-2.76,17.46,17.46,0,0,1,.9,6.5h0a13.39,13.39,0,0,0,1.17-2.17c1.05,6.2-3.47,11.88-9.43,11.88a10.1,10.1,0,0,1,0-20.18,9.14,9.14,0,0,1,3.86.85S27.76,54.79,28.33,59.65ZM80.48,81.51A24.41,24.41,0,0,0,89.33,68.4C91.16,66.21,90.66,64,88.25,64a4.51,4.51,0,0,0-1.35.2,12.63,12.63,0,0,0-1.47-5.69A29.78,29.78,0,0,1,77,64.36,39.06,39.06,0,0,1,61.42,68h0c-1.8.08-2.92-.22-3.55,1.89a4.34,4.34,0,0,0,0,2.17c.51,1.74,1.84,2.51,3.58,2.92a15.22,15.22,0,0,0,2.73.34c13.07.37,23.56-9.83,23.69-9.91a2,2,0,0,0,.22-.22l-.13.3c-1.89,4.24-12.82,11.94-23.69,11.72h0c-2.52,0-5.59-.66-7.18-2.63-2.52-3.13-1.21-8.32,2.81-8.45l1.34,0c9.95-.31,18.88-4,25.27-11.59.88-1.09-.1-2.59-2-2.64l0,0a18.29,18.29,0,0,0-6-4.17c-3.7-1.89-3.35-.26-4.22-9.41-.23-2.47-.7-5.83-2.87-7.12a3.52,3.52,0,0,0-1.83-.48,3.4,3.4,0,0,0-1.07.16,5.65,5.65,0,0,0-2.71,1.72c-4,3.68-7.19,2.68-12,2.64a9.15,9.15,0,0,0-9.18,7.88h0a15.48,15.48,0,0,0,.26,6.21,10,10,0,0,1-1.79-1.52c.7,4.38,4.7,7.24,4.7,7.24a6.51,6.51,0,0,1-1.54.08,16.73,16.73,0,0,0,4.26,2.43A16.37,16.37,0,0,0,46,64a17.39,17.39,0,0,0-.75,7.29l1.09-1.63a14.28,14.28,0,0,0,.67,7.14c.46-1,1.46-2.91,1.46-2.91A14.6,14.6,0,0,0,50.23,81c0-.74.33-2.61.33-2.61A15.1,15.1,0,0,0,54.12,84C58.78,88.14,71.1,88.88,80.48,81.51Z" transform="translate(-3 -2.05)"/><path class="cls-3" d="M11.36,55.42s-3.61-2.63-4.11-3.49c-3-5.07,2.22-15.47,5.94-21.39C22.37,15.92,37.66,4.38,44.61,6l7.13,3.68a57.68,57.68,0,0,0-7.05,5l-1.52,1.27s-4.43,3-6.64,4.86C27.7,28.35,19,40,15.77,51.29A12.24,12.24,0,0,0,11.36,55.42Z" transform="translate(-3 -2.05)"/><path class="cls-4" d="M44.61,6h0c-6.95-1.65-22.24,9.89-31.42,24.51h0l7.32,5.76A68.18,68.18,0,0,1,39,16.79L37.8,9l2.17-1,4.36,1.41L44,7.9,44.61,6Z" transform="translate(-3 -2.05)"/><path class="cls-5" d="M51.74,9.71l-7.05,5-.49.39L37.94,9.95,37.8,9l2.17-1,4.36,1.41.07-2.71.2-.61,1.91-.73Z" transform="translate(-3 -2.05)"/><path class="cls-6" d="M65.66,4.85c-4.66,0-9.9,2.45-13.92,4.86-.56.33-1.12.68-1.67,1L48,9l.76,2.65-.85.59L43.54,10.9l2.87,2.41c-.66.5-1.24,1-1.73,1.37L37.8,9l.36,2.55,5,4.41s-4.43,3-6.64,4.86C27.7,28.35,19,40,15.77,51.29l.18-.1.07,0L16.3,51l.17-.09.28-.13.16-.07.3-.12.14-.05.44-.14a12.33,12.33,0,0,1,8.67.41,53.83,53.83,0,0,1,7.15-13.25c2.68-3.51,5.25-6.64,8.34-8.36,5.85-5.5,21.62-11.32,26.67-6.27a33.54,33.54,0,0,0,3.09-6.12C73.82,11.23,73.86,4.85,65.66,4.85Z" transform="translate(-3 -2.05)"/><polygon class="cls-6" points="42.65 7.73 41.61 3.98 41.01 5.85 41.37 7.32 42.65 7.73"/><path class="cls-7" d="M86.9,64.25a12.63,12.63,0,0,0-1.47-5.69A29.78,29.78,0,0,1,77,64.35,39.06,39.06,0,0,1,61.42,68h0c-1.8.08-2.92-.22-3.55,1.89a3.44,3.44,0,0,0-.1.59v0h0c0,.07,0,.13,0,.2s0,.36,0,.51h0v0c0,.09,0,.18,0,.26h0a1.92,1.92,0,0,0,.12.51h0v0c.51,1.72,1.84,2.48,3.58,2.89a15.22,15.22,0,0,0,2.73.34c10.66.3,19.61-6.43,22.61-9A18.41,18.41,0,0,0,86.9,64.25Zm-30.63-57a25.64,25.64,0,0,1,7.9-2.37,32.71,32.71,0,0,0-9.52,4.23A118.06,118.06,0,0,0,40.38,20.47c-2.93,2.9-14.68,17-14.67,17a56.28,56.28,0,0,1,7-10.34c1.92-2.42,4-4.77,6.08-6.94q1.06-1.1,2.13-2.13h0A58.09,58.09,0,0,1,56.27,7.29Z" transform="translate(-3 -2.05)"/><path class="cls-8" d="M80.48,81.51a26,26,0,0,1-4,2.57,12.68,12.68,0,0,1-5.07-3.74,31.35,31.35,0,0,0,6.29-2.47A34.39,34.39,0,0,0,89.33,68.4,24.41,24.41,0,0,1,80.48,81.51ZM71.94,47.62a3.16,3.16,0,0,0-4.59,1.57c.88,0,1.81.71,1.75,1.56a3.37,3.37,0,0,1,2.36-.92A1.72,1.72,0,0,1,71.94,47.62ZM56,69.43a4.11,4.11,0,0,1,3.9-3.25l1.34,0c9.95-.31,18.88-4,25.27-11.59.88-1.09-.1-2.59-2-2.64h0c-.32.34-.38,1-.91,1.89-1.94,3.38-4.63,4.92-8.22,6.71-11,5.47-16.69,2.93-19,6.28A2.68,2.68,0,0,0,56,69.43Zm19.89-23c-1.05-.75-1.09-2.07-1.66-8.16-.18-1.94-.51-4.44-1.7-6a1.62,1.62,0,0,0-1.09-.46c-.75,0-1.6.74-2.08,1.28a11.63,11.63,0,0,1-5,4.34,15,15,0,0,1-6.86,1.37c-1.69-.05-3.16-.33-4.61-.35a7.93,7.93,0,0,0-6.7,3,8.47,8.47,0,0,0-1.78,4.86c0,.22,0,.43,0,.63s0,.57.08.84a7.74,7.74,0,0,0,.29,1.42v0l0,.13a10,10,0,0,1-1.79-1.52c.58,3.65,3.46,6.25,4.4,7l.16.13h0l.12.09a6.51,6.51,0,0,1-1.54.08,16.73,16.73,0,0,0,4.26,2.43,14.79,14.79,0,0,1,8-3.33c1.48-.92,3.07-1.82,4.78-2.69-.52-3.22,2.34-6.46,5.93-6.78a5.11,5.11,0,0,1,5,2.32L76,46.54Zm1.3,21.69-.1,0c-1.08.25-12.26,4.58-19.32,2.36a4.25,4.25,0,0,0,.14,1.55h0a20.67,20.67,0,0,0,4,.35C71.2,72.45,77.89,68.22,77.19,68.17Zm-52-.87h0A2.7,2.7,0,0,0,25.88,65c-.21-1.17-1.53-1.41-2.41-2.31l0,0,0,0h0a2,2,0,0,1-.5-1.43,1.32,1.32,0,0,1,1.68-1.31,2.22,2.22,0,0,1,1.16.86h0a2.82,2.82,0,0,0-.46-1.17A4.07,4.07,0,0,0,21,58.15h0a4.22,4.22,0,0,0-.56.14l-.16.05-.34.15h0a4.78,4.78,0,0,0-.76.46C16.8,62,20.83,67.62,25.2,67.3Z" transform="translate(-3 -2.05)"/><path class="cls-9" d="M60.35,48.36c.2.29.26.52.17.61s-.74-.07-1.6-.4a8.15,8.15,0,0,0-6.66.14,4.68,4.68,0,0,1-1.48.45c-.4-.06,0-.79.86-1.5a6.51,6.51,0,0,1,6.24-1.07A5.38,5.38,0,0,1,60.35,48.36Zm-.43,2.24A3.87,3.87,0,0,0,57.07,50a6.17,6.17,0,0,0-.68.17l-.23.08a3.94,3.94,0,0,0-1.28.8c-.46.44-.59.85-.45,1s.45,0,.94-.25a7.84,7.84,0,0,1,3.9-.62c.53,0,.89.07,1-.08S60.18,50.79,59.92,50.6ZM24.64,59h0a3.21,3.21,0,0,1,.63.66c.5.71.34,1.13.55,1.33a.26.26,0,0,0,.29.05c.29-.12.43-.57.45-.89h0a3.18,3.18,0,0,0-.87-2.23h0a4.68,4.68,0,0,0-1.27-1,5.29,5.29,0,0,0-1.76-.6,6.62,6.62,0,0,0-2.55.14h0c-.16,0-.36.09-.53.15A5.8,5.8,0,0,0,16,60.38h0a6.63,6.63,0,0,0-.13,3.31h0a4.46,4.46,0,0,0,1,2h0c.62.67,1.3.54,1-.08a5.42,5.42,0,0,1-.5-2.16A6.33,6.33,0,0,1,17.74,61a4.72,4.72,0,0,1,.71-1.23,4.5,4.5,0,0,1,1.49-1.16h0l.34-.15.16-.05a4.22,4.22,0,0,1,.56-.14h0A4.26,4.26,0,0,1,24.64,59Zm-.31,2.85a.88.88,0,0,1-.35-.51.68.68,0,0,1,.29-.84c.25-.17.46-.26.46-.37s-.84-.42-1.43.17a1.84,1.84,0,0,0,.14,2.48c.88.95,2.24,1.17,2.45,2.36a2.26,2.26,0,0,1,0,.54,2.87,2.87,0,0,1-.07.54,2.63,2.63,0,0,1-3.15,2c-.33,0-.55-.09-.61,0s.63,1.07,2,1a3.52,3.52,0,0,0,3.19-2.61,4,4,0,0,0,.15-.85,3.55,3.55,0,0,0-.05-.91C27,62.84,25.06,62.43,24.33,61.85ZM72.41,47.61c-.55-.09-1.08.45-1.2,1.2A1.23,1.23,0,0,0,72,50.32c.55.09,1.08-.45,1.2-1.2A1.23,1.23,0,0,0,72.41,47.61Zm-6,2.18a1.63,1.63,0,0,0,2.72,1.49,1.63,1.63,0,0,0-2.72-1.49ZM44.47,27.67C54.79,21,65.09,20.22,68.62,22.93h0s-.06-.17-.09-.22h0a7.81,7.81,0,0,0-4.85-3.77,7.27,7.27,0,0,1,1,1.33,14.84,14.84,0,0,0-5.23-2.22l.27.2a5,5,0,0,1,1.12,1.43,11.7,11.7,0,0,0-6.24-.78l-.25.06.32.08a4.31,4.31,0,0,1,2,1.16,15,15,0,0,0-9,1.17h.47a7.14,7.14,0,0,1,2.82.51c-2.11.43-5.17,1.37-6.81,2.79a14,14,0,0,1,2.61-.14,36.29,36.29,0,0,0-13.18,13h0A42.65,42.65,0,0,1,44.47,27.67Z" transform="translate(-3 -2.05)"/><path class="cls-1" d="M68.81,42.28c0-.71.1-1.89.77-2.1h0c1.14-.4,2.66,2.53,2.73,5.13a5.73,5.73,0,0,0-3.06-.55A8.81,8.81,0,0,1,68.81,42.28Z" transform="translate(-3 -2.05)"/></svg>