<svg xmlns="http://www.w3.org/2000/svg" width="50" height="50" viewBox="0 0 50 50"><g><g><path d="M28.942 13.484V.084h-7.5v13.4l3.8 5.2z"/></g><g><path d="M21.541 36.484v13.5h7.5v-13.5l-3.8-5.1z"/></g><g><path fill="#00f2e6" d="M28.942 36.484l7.899 10.9 6-4.4-7.8-10.9-6-1.9c-.1 0-.1 6.3-.1 6.3z"/></g><g><path fill="#00f2e6" d="M21.541 13.484l-7.9-10.9-6 4.4 7.9 10.9 6.1 1.9v-6.3z"/></g><g><path fill="#00b9f1" d="M15.441 17.884l-12.8-4.1-2.3 7.1 12.8 4.1 6-2z"/></g><g><path fill="#00b9f1" d="M31.241 26.984l3.7 5.1 12.8 4.1 2.3-7.1-12.7-4.1z"/></g><g><path fill="#d63aff" d="M37.34 24.984l12.8-4.2-2.3-7.1-12.8 4.2-3.8 5.1z"/></g><g><path fill="#d63aff" d="M13.14 24.984l-12.8 4.1 2.3 7.1 12.802-4.1 3.699-5.1z"/></g><g><path fill="#fb015b" d="M15.441 32.084l-7.9 10.9 6 4.4 7.9-10.9v-6.3z"/></g><g><path fill="#fb015b" d="M35.041 17.884l7.8-10.9-6-4.4-7.9 10.9v6.3z"/></g></g></svg>